<?xml version="1.0" encoding="iso-8859-1"?>
<!-- Uploaded to: SVG Repo, www.svgrepo.com, Generator: SVG Repo Mixer Tools -->
<!DOCTYPE svg PUBLIC "-//W3C//DTD SVG 1.1//EN" "http://www.w3.org/Graphics/SVG/1.1/DTD/svg11.dtd">
<svg fill="#000000" version="1.1" id="Capa_1" xmlns="http://www.w3.org/2000/svg" xmlns:xlink="http://www.w3.org/1999/xlink" 
	 width="800px" height="800px" viewBox="0 0 195.363 195.363"
	 xml:space="preserve">
<g>
	<g>
		<ellipse cx="107.76" cy="16.331" rx="16.549" ry="16.331"/>
		<path d="M156.763,179.895l-25.865-24.293c-2.092-1.965-3.278-4.709-3.278-7.578V40.848c0-3.17-2.57-5.742-5.741-5.742
			c-8.85,0-25.567,0-32.903,0c-1.736,0-3.502,0.355-4.819,1.671l-19.107,19.1c-1.271,1.271-3.332,1.271-4.603,0L45.882,41.311
			c-2.303-2.304-6.039-2.307-8.343-0.002c-2.305,2.305-2.305,6.039,0,8.343l17.604,17.604c4.188,4.188,10.978,4.188,15.165,0
			l14.36-14.36c0.575-0.576,1.509-0.576,2.086,0c0.575,0.576,0.575,1.511,0,2.086L70.582,71.153
			c-2.083,2.084-4.909,3.254-7.856,3.254c-2.947,0-5.773-1.171-7.856-3.254L39.571,55.854c-0.741,0.287-1.434,0.727-2.031,1.324
			c-2.305,2.304-2.305,6.04,0,8.344l17.624,17.625c4.188,4.188,10.977,4.188,15.165,0l17.633-17.634v41.684l-23.585,24.421
			c-3.789,3.923-5.906,9.164-5.906,14.618v40.275c0,4.889,3.959,8.852,8.847,8.852c4.889,0,8.848-3.963,8.848-8.852v-37.414
			c0-2.699,1.049-5.291,2.925-7.229l21.462-22.179h9.371v31.822c0,5.535,2.287,10.822,6.321,14.611l28.406,26.678
			c1.708,1.604,3.871,2.396,6.042,2.396c2.359,0,4.718-0.938,6.46-2.794C160.499,188.84,160.327,183.239,156.763,179.895z"/>
	</g>
</g>
</svg>